<mxfile host="Electron" agent="Mozilla/5.0 (X11; Linux x86_64) AppleWebKit/537.36 (KHTML, like Gecko) draw.io/24.7.8 Chrome/128.0.6613.162 Electron/32.1.2 Safari/537.36" version="24.7.8">
  <diagram name="Page-1" id="YD373_ilbuL0Prx-cwQY">
    <mxGraphModel dx="3215" dy="5335" grid="1" gridSize="10" guides="1" tooltips="1" connect="1" arrows="1" fold="1" page="1" pageScale="1" pageWidth="850" pageHeight="1100" math="0" shadow="0">
      <root>
        <mxCell id="0" />
        <mxCell id="1" parent="0" />
        <mxCell id="aqQndB_alxP7V_ghkqSS-1" value="" style="shape=image;verticalLabelPosition=bottom;labelBackgroundColor=default;verticalAlign=top;aspect=fixed;imageAspect=0;image=data:image/webp,UklGRjhgAABXRUJQVlA4ICxgAABw7wGdASoABZ4CLiUYjEYREREBABIlpANjMr/80/3n+nfrx70vif7D/Xf7f/jv75/dvTv8Z+afs/9p/yP+Q/tntuf3/k06Y/435qe4X8a+zf3r+2/5D/ff3j9zfkH/Wf5P9yPNn82/Wf9j/jf3A/wP7ofYL+Lfyn+3/2j/Ff6L++/td9gP2P+3/vf7eeIlvP+Z/4f+f/cj4Bfbn6r/lv79/h/+H/hfh1+N/3n9l9X/4D+9/73+7fu1/gPsC/pf9f/yn+B/dX/I////s/G14bH4//k/sl8An84/uH/e/xn+h/bz6aP6n/w/53/VfuR7vPz//Lf9n/N/6j9tPsR/mH9l/3397/zn/b/z3////PlG9LaPDq/w89meHkHH+ZxyZNdtFQzyDj/M45Mmu2ioZ5Bx/mccmTXbRUM8g4/zOOTJrtoqGeQcf5nHJk120VDPIOP8zjkya7aKhnkHH+ZxyZNdtFQzyDj/M45Mmu2ioZ5Bx/mccmTXbRUM8g4/zOOTJrtoqGeQcf5nHJk120VDPIOP8zjkya7aKhnkHH+ZxyZNdtFDFDc47UEl1g0fnHagkusGj847UEl1g0fnHagkusGj8xG8WknGMwV0hpdYNH5x2oJLrBpAbdDtQSXWDR+cdqCS6waPzjtQSXWDR+cdqCS6waPziAS+OmPeCK/////2eGKueFth4r4H94Mm5x2oJLrBo/OO2r2yXWDRjgucTNw9nUKjr7dJqI/9IhgB7BX4EXW0EnpnA7I4NWHJ4cu2u08It3bXaeEW7trtPCLd212nhFu7a7Twi3dtdp4Rbu2u08It3bVkEFoIjXnY1ENzwIQvHZ+PAKsPQ1igXdquC5SuVWDR+cdqCS6waP0e0bUEkLpf9//o7oUkD0mcQ6a+Aw9sJRg4xBHw85LpFYhOnD94VJh59hM5w3gWDpnyh8m0aXJTCK6PMXeQ43dyryvvE8D7UwIuKTI3fpFF/Xq1EDh8V2Px4pju0XMfZYddHXko+TbGlN3Y0pu7GlN3Y0pu7GlN3Y0pu7GlN3Y0pu7GlN3Yj+C2fAvhyW744r5Nkt4oX1I5/jOeebuqiXLtrtPCLd212nhFu7a7Twi3dtdp4Rbu2u1C7jQSXJOHnazbkT68oJLrBo/OO1BJdYNGAAE4u/vUp5Yg0fnHagkusGj6WpJO//8Ijtps/uH/fyO7j2IWpAtQWHuDe7CloplmLNdqVgW0frjIfEKwLaP1xkPiFWuqeC6qrCWXsgRWoJLrBo/OO1BJdYNH5lON/c9xBJdYNH5x2oJIrJHrNbaWHOM0gAEEkbO/yGtG51B847UEl1g0fnHbV7ZLrAmEMOj8F1g0fnHagkusGj847RhsIQKQkusGj847T4DfFn9j0/ZBULjtQQiYXlJMxFcdqCS6waPzjtRjsF1x079SAOKCS6waPzjtQSXWDR+cVKTVIitQSXAB99fSiMJdcV4urlKdlb88Qt6R2ZH99kdkgusGUq0+KZfQIrUEl1g0fnHajHYLrjp36kAcUEl1g0fnHagkusGj84qUmqRFagkuRPJctw9N/j+gkILeLXCU4EE/1JLAF9ko0UVmiN9FxjE5xOs1HKWOgh7SqWS94WAVJIMK4zflNxVY0fY3fvY7UEl1g0fnHajHYLrjp395QCoJLrBo/OO1BJdYNH5x0/pFuGlBJdV78wZz+3MC46GJjABAR1gwA+s5eURrQjnueAJucdVld8x4847UEl1g0fnHryUJLqr4SOaAG1BJdYNH5x2oJLrBo/OKlMlDkHTOpJ3jx40CIywynCtx/n+ZfYMPAA1vZGrJB42UwgbPElgeY22CaX/rBNL/1gml5Nt+BKGc0MlDOaGShnME41t5c21BJdYNH5x2oLI26waNfg2OwDjBo/OO1BJdYNH5x2oJJPlSTrpN4kdEUPHR5gPa0jo1oX7hWOkgRbAo6gFwF5uZ3NFnsnubA2ziXAgMv0s326eph+rIZbwMa6vBWh9TDlYn7Y7JuJcNZAHjkfk3OO1BJdYOKBecdou+rJAQUfnHagkusGj847UEl1UzZxMiwQQXXhZz/G/DDTL1owbcHZbENH5xHj6Az//vweCH/Mf+7zfp1DtQSXWAWmShXMHeTwXX0nDop1ta5PPOhkbi1JrFYK1gInzY8k5ExvG+b8vQj6GsDbwT3v3yVvMQRHjBWy2MUNzjp5zgl3mU7c47UEl1g0fnHagkusGVCC11oKgVBJcJ133/8QL///8dv8/F//D4RgNH5x2oJLjISuQMS7/L3xqURek/0+oHe0ZG4a29eupKVpMBfZnlLx+rhKhnjmKnWH44qfERe/3p5DlmYjMU08ejAovJ6wF4fSjBoyKhl1LGj847UEl1g0fnHagkuqyaGgg6waPzRFi3zVKPj922R/MSkVBf/5/+//F3+oeORKQqfuwJucdp9pulhZH7NLXxTdf1yC/4+NlduZrACAs/WwXlLkBYVdXNUxJ33Av7JfTTjnYzovuVMWGHXQ1h+v9T/ms1R8l1iKdX5x01YYq8ucNH5x2oJLrBo/OO1BJcj6xqhrgLjtQSRTEBpV+TA99W/j7i4TBv3L/+ICNTfv37qJ0HPY2Dv0ZqIqmPRDZ0JVSI1x2gz2tvZ4bYar/+m9XiP///lNfSwSM7SdGAJcAAg2IIs4trAcdqCUZ7cGj66oo9MlBJdYNH5x2oJLrBo/OKeq+mBR8l1gRDYT6v9tsfu1BIyF05A1a+ckQXNaaqweq+RjDr4RkUBUEk4JdSK+/WXAICcASQEQYoiE3M1mf83Z+PwXWDSw+fHaff0dIEUfnHagkusGj847UEl1gSolKvGj847UEl1Wg5KV5jPSY9O3ZiAZVKJ3a/1iVu1BJdYNGysQooV46B2iNdE86CbnHajHYLrjpqwuWyUEl1g0fnHagkusGj84ptboYNDR+cdqCS6sCSelysCFz+xAcOcQm49knfgHWDRmCaZQUHdk6BBlkzNgQ4AUnJOKIrTNEmpKLaawaP0e0bUEklVSM67UEl1g0fnHagkusGj8zLKuAuK1BJdYNGe0YxdiQP3CzvnItzeIaDCIAiZf6s864G7GsDd+q6jjkimutmislwfi4rPT6zO+q4SAODHBu+bzyP/ZeNa1/9kX/1Mp5HzSCEBy/PXa99IC+sgQOsGj9HtG1BJK2feH5gbUEl1g0fnHagkusGj84ptbgCK1BJdYNH2FA3mWXFTmEiSNMp8YqDx3KILO/JKJtJ+uT9TLds7f3c5gkiw3kjLOqCwsGqVGBQAvvD9EHsTcLAJdYJMYNH6PaNqCSYbTJaB4rpJdYNH5x2oJLrBo/OO0XZkMiOENH5x2oJIBJvNJ62StzeuVFZxQ5BWqDXRiB3I/67yJx04atHBklDxQBPzjtQSXWDSw+fHafY5HkF7+NwlCUxmS4Xjx40CIywynCvWN9DMuZQ5XHjxoERlSxwdbeSV+JK/ElMfZKnhSkS2budJQBmFCiHv7PZtZrR+cdqCS6rIr6YIYj2Lq6pgJw/jATpA7C5YWVT15FV1cjJlC1F65pL+lBDJO6fCzZR+cdqCS6waPzmi40El1QCP02uMtWwgB/URRm0PUmp0QRsg53gUMmBQyYFDJgUM1dPE42bel0Bcd+7aMEI8fEkksOWfUMmBCbtFS/Ox5V41Bcr77GgSrZiFnl4xjuwA2oJLrBo/NLrRStbj1C0gSFyKV/MoHAwDRUjl9ABt44w6YOMGXr8aF3ez9ifnHagkusGj849eShJdYNH5gLBo/NDgAAAqCS6waPzjtQSXWDR+ZPUNnA6/UM9XcBv9OTKb3jcLJwKXsz4KM6WKLC7NwxSq1pO8pdZccnAPgBW5zUc3BEUPOO1BJdYNH5zRcaCS6waPzjtQSXWDR+cdqCS6waPzjtQSXWDKauVeUk0FgRkF3Okrpfx0FQupKxw3swPSxNaudrlaxdgGDZ/OLF9KxJTeyoOkWg7kfK6waPzjtQSXWDigXnHagkusGj847UEl1g0fnHagkusGj847UElyG1pEzXfmp1fapkxkHoW0fyXGiA0WHKzuA3+ie+eMutusyzR+cdqCS6waWHz47UEl1g0fnHagkusGj847UEl1g0fnHagkuqmIQU6IGu6YCqnErnhOsGj6kwZrUat3xr2lsTYhFMbCMKQkusGj847UY7BdcdqCS6waPzjtQSXWDR+cdqCS6waPzjtQSSn1TnN8DgzNrnGiTB8lALbuAT5x2xydMIpvLGPZu+elVbzHIq7sd77sPZA0oJLrBo/OPXkoSXWDR+cdqCS6waPzjtQSXWDR+cdqCS6waPp9CjR/k5/LnARfBx6nPOlCrLr0kppJCWxo+vGSZfpAB4hhqHZOq7P7rjtQSXWDSw+fHagkusGj847UEl1g0fnHagkusGj847UEl1TF+LTBgdVkCI4SQm93FD4WuD4j8L+aoTBZY0ZepnmzC2FnAB91aDYpWLz0O9we7x8OFDzlBdYNH5x21e2S6waPzjtQSXWDR+cdqCS6waPzjtQSXWDRlLvDtfmfyyOR3aXmrPhOE3ehcMeZeaOqQh9lvtiUvSQ1Za/0b0e25JBatqxpThtjgWaTC94Q69Shdj/tNd+sEZtkEBkusGj849eShJdYNH5x2oJLrBo/OO1BJdYNH5x2oJLrBmKPL4LQjqD7ilM1VJ5Akkfd+ePNDnXLWVmB2/JG/a2OZDGHXci8LbkRN1oupeD3GiPP+e+61fPgQAeUuSfnHagkv12Bo/OO1BJdYNH5x2oJLrBo/OO1BJdYNH5x2irh8JEwdJ6AU9aqI2NtQ5H4UyYOqxHDucGUBEvNo/Ys4O9+jzMGj6Wp0Y3HAEF0O1ybZsqjNO0aGTPqcDjBo/OO1GOwXXHagkusGj847UEl1g0fnHagkusGj847UEM0nhuxrZBpuT8AVBJdYNH5x2oJLrBo/R7RtQSXWDR+cdqCS6waPzjtQSXWDR+cdqCS6waPzjtQSXWDR+cdqCS6waPzj15KEl1g0fnHagkusGj847UEl1g0fnHagkusGj847UEl1g0fnHagkusGj847UY7BdcdqCS6waPzjtQSXWDR+cdqCS6waPzjtQSXWDR+cdqCS6waPzjtQSXWDSw+fHagkusGj847UEl1g0fnHagkusGj847UEl1g0fnHagkusGj847UEl1g0fo9o2oJLrBo/OO1BJdYNH5x2oJLrBo/OO1BJdYNH5x2oJLrBo/OO1BJdYNH5x68lCS6waPzjtQSXWDR+cdqCS6waPzjtQSXWDR+cdqCS6waPzjtQSXWDR+cdp8AA/v/8TRLqCMIR3WwLv1IEkN8+xIH33Az59R9WB3NwqFPG0N0MGspHax24AjhXK25XJS1wbVrRR+kFsKdYMZ36MNg7k/Yx4DuDaho7rhqLMYBWjZdM+2Zz/7rSTAvfDmdr6dERfkS1/hPOAVRaghCOe2sFRsCU4GQhkb0rQa2gsM2WYENoT3pULq2nhhKunbL8HBW3Wh4g6eqWyrjPZSe67bMQUTFy4E97J6DSzzECcVWwQDLvCwVXCpU45kHS2S+xfnF89ObbkIy9G1/a5P2rS0H3NwxIDyNDU645zgqpErDUn+LHCnuohTvMIzrXCmVc74W3DouZGFjU72QGSJS+PH/mmK5HRhBbww3kdVbsUDxyEaJso8SJ9Sqx5kuQCJ9aNbrWENAcwA5z3xErvtBXMxVwHG/SPJhHeeX2sGaM41wEV6j27+bPx0dnCFuKpd22FQX9iq0m59zoQQlOJPC8m/2+XschHKFT7WXkwzqYPRjgI53enUuDE380VTETvaF8w7J39eWSASRBK6VPkdG6lwl6ABafgRPFH8LnibeK/eINaQHTTWN5CNVv68pwDuWN7ucY4sWi3+A0hJnyuDWNxgw6et6Vyh/JajtpwG4GrdhbUTn+oOD8pvz0Xjms4X2FrVBchjHQU2FT2vKAL3+kXQGb8F7+mdgjleYJecNvt5zgCFkQeLWVsgon9+j8OtIBOAsB/zDpsaEDa4j/d6IYb6MlYg4VWdAla6J9ixFIAImnBaQSP07ECdgpvaULRU7MIti0CpyB0PtClZK7+04k1o6p2N+uq8BiyYuRDXC7ZnyGWmz9Cg5I8LddmFHOuN7vJg1fo+pqUafBc0cCqwLkcocgNxjMYrMDwO1PBNfHgFkKvAfgL6IivytiVoxu61Ix3v51CMlLtB4Kt3pyyBXE3v8cwMwUISQiq3YKC02xs8Xx8f9u+A9uIarALxhUgT3VWWNJag7Xwu6ZCaTzgRY/bD3lbFdYlXW2znQxBZHphURoiiQvOCCb7VVDiMos7+3TUXy+s502zF+zSzcCsvdxzvPO8CYSEOHlwHUgYnybY3l7LKeLRHtwLJ/dAnPkOXTX0fn7VbRTR1yGnei1wscH/R6N4EBtPzbWZf5As7NSEoSEZYzDE18Ua2qmIJVIFglrIiOB3exxiH8E8Z93h8Tf8nY+dFWrh6VNqIbuURG/2GePwZZpo+3UaQI7uEb8h6Qwos6KgwgerNK2IhS0tIAKjr7odjVIKgsndMZN2TYcNTxF6KYG9cE2KbOzBKiD+loWQTPnCEQGG3nJAPNv3waT/F3VqeEMav9eu/4RY1btL932lIMtBhpe9UgeYS0SjyDss1G9lyxs/LRpvmgKPqE8ciYxqI6pAGjsUW/ijEWRAAUwzL6hqXy1kDsaiaUgZjD2PNW+T3Aw5V4e3XZ0McE8KPg6+lipq3zKsScW6u6zjICH6im98yj4QgpvW5GZnBKADV3YDZcqyLW4NmmgshwqjnBB7Qcdz9HDrqTVnX4z0TAla9B7i2711fgvtekDbqYuo8m89T8e1dA/fGyyAiTqcuD0+Ys2PKV6zqQpSd7P4LPNgP7TsIhLuMlq2NX6tL0Eq9ueipyrtMf3r/2uwxI8QTQKUjgVK7lEytckGWqjEdHDXpb/FOjBCwEM7pSBdahwfkvVHwKwQ/klsWcmdsuXJbtcbEAf9zNfKaVYkQec0XMddM6PyXHeaVJ8rUzyp8cj8vyGaaYCEwzhwx5sGPRDcD63K20GT9Hks6ANsGlEMY4qE1bzY71xH9MYyn/r4gmIEBBsBPn9U1zn52NIrPgnouXQoc98By7+74KjMyiY+ONOgjwRCk1KxpDTVttIj5ltgh4gUbVWp7UwTT6SzLBJ++vSgk+luhPXvtMbdCgBrBCwHgaP+oHCzOlbZYt+K4b0RaCJojyEWVwHsoeBuVhu6zjcdamytLQDmA2Z90czRSwFBIgPv/pTwJZrGbkix2qrztVQ5yQWr0MnsYv+PoxFD4lZLv2fcynDUUrrbgaH6ExLXnKznHUrw80dpDoibH1bc0MFByzp2tb9OdYqRjlWFHkE0RQRrnZY4duh0AqE2PvxyECsMRIGrG+BF8UpYnHmW3w/6M8vxWeSCFKwcJgwyPMGRUAZZnobdu5Ti7JBdpI5ub9ngoNHF+MWaBvfSu+DXgGmpxHLYkvHBs+V1KMy6cgqDUr5THtLu3DYAfzwdzATsy/fNcnkVq2dL/faZmTqKLsjHaOK8mZnb9KS9PizWYEeFkFnbayI0iQQN5yxmWezfZ+cUVhPijoqSJ1ejVbj6TQdzAuJv7oTwnrxZmsryjLyBOvcvhlodWcLwpH493z1PYn2r5r1qz9k/XOf32Z1SJuvhAPS0b3qeQoqBF0GF9KtUrVCuLJT5pidmOVNBfmQhTmHWNP2nLWj1EH6tDMcsJRjB862JSSGG2HT/ZGl85mhFhH0l3B6bZCbGqaAf4Yg+xMYy1RUPU6Usz1QD3jF11dalgDK7n98EcwVThAT99ZYcviwG23wkM08LvB2C81gzfRYKwsjb+tFg8Zv2xj+rzjjJJ01oZuwc1ca1uyTLAapmTgqEkkE31XOFjVtDqZPQvMJkHs0k5/95kXmunQ7a11RbA12VrBuU+xlPBxSTEVlqdOs9T8Vc7hmHIlP2wTpsS9WyBQRaniB1ys9IwXqzbZwhHP1YDBbxXsgWUnBJhTCvkRlNgbYIC1YaLo5+DB7O083cQqbP7u0gVTuAIJKaYH9vejavrMbCfCtMX5VBFNV1RCT6nQRbm+kNowG5MQkApu/KIMHxAvwpJdoY+yjhY9VrIXXRVCVmeNGrVSuSRftY0+piLSd8+ZfcCx8n8ZFZX6hWbLXTm82okp7MPHji8BdlzYjVSlDZYNAiHnf7snt3tzZZXtVDP0Oe7deYmGKK96ACZZCQ0MTwsPw9bhCDy9y7OlONLRFgrsvufrk93MDdoYkZxCiBdY7oUmkwieG0L8nM0paTyahRGhOgG6+KpowCVQf8HcKYpHfBz9gGDTkwk6CiH5g4F/h0L/onpBe3t01LbfpIIoOPat2Fu1YifvvPv88Vqn0ePSXpGHjE9H4oIk4cYQEau/dz13tJ27jyububNefUqt3WMedizqopMXOjBmINERinAFR2uUxau8gI3yv8Zh6QdnLoYRXIpIrDYvG18WP2GNabWvVWyRCXFSwH+bcd+vy6CxMAkzW9SjiBYjh2hunYiNDR1kp2Qw2k27lDljVkUShqqbPpfDkyEPtyFSDVKqj6/F6Yw4OAD2hQqBfLhs07dotDpVQx80u/QnUqI/PKqjzSRlRuf1jwsXLFjf+ZwMu0SfXxwZBfnk0Z4jMSkiEBLEzuqUO6dLa0aBDh2FfNN9BI/bKCbYWv7/PhAqApfN6BaRAm7C5FUVYF7Z1akd2mG7IKVxanPoZ3l1MYeLjUbfFE4c/0tKz1v+81cEFTZNWs4T+FgRbF8D2FPeQSzsNcQv/n212DFpu8oBE5+l+yAiMPumnzWKM4iD2rKpR0QVgeTZLWlvQdFEqaeMCnf2LY7vm1YLDaTwXDziiGzR7Q/abZ4uba3I2n697771KxROIqfnvoOrp3X9QR7nBIvMHF+oF7RoywxtaJAKOtynnLCmPOUBFFW9NURRPpVzWXWaX7p6+qwvGn77QWJIrIwo8vjjiEb61RxsdEumAVv9UEf+VMbZBv3so/pnK3re/BFSDZLQino5xNCQvVeADXu8s4m0C6/uiJ2BFom4Cgxr2MhilM5WJqWkiejArva7YLI2xtlivPGYOrF+4j09dFhe5KTF+JjIFPOt6a7P073HRvjEhzySjrvJXhw5EsFiE4SFN5jaofdhaEm2hIEHTuUsMh7C7LXTcIYYmgvfYBSFvV7TpNHh0aDoTJptUEy5poa9b1HPyk7wdrQhtgOmEglweE3B76i2VwQwVredgB+zBuYfqaMBNyVWkuRue7k7FBfCKC0dmggX2ya0et6VKwzK35Lmd/jX+F/6eOC96Max01N8E9jM4b0ui2/t5UfuADiL4wSULXrc8b8nINxpxLUos2uI6s2h/sYtVE6jpKEHYe49tC/e5/xp9FGa/hZG2FJLnxFaTzgRVnPtOukaOqt93jk4ApTbuPf/5eyXNOsR42KbEho3TjKd5cdBA/NqDN3e0J3+KPSYzZkwoL4FHyU/4eoFARTwi1OXKzlYCUXytBePHjTcA9ESsLyt0YJX7I0ZwQAFDOJzRYU29p6Ol1kGwhAXB3lwesh0o4qkrmWrXWJhCW9EjWEJN40Lg2l3Dl05cdLheuaaGqNO3ZIAx1EaU90wFIDfLBlihVPywGQIDzkBzIsO7SEoaOS3qR6Ys/TOVwqk95fUxz18xNxg2CgoyrQ/KLPjD4bgOdZdimy+LtAFSFRJ88qbeN+Py3Jcx7zGu9tDth3Yh9UIoaypozCHH6Hg79hpdfI7uZ1P/9vRfXEqi0eYbSecBXq1LXFQpJO8p5fPTvPsUQoaPhpohsxkBMkO5jRhjuvX6k6RxzD2Qsr551gc/6Rv7bd68DTH3L9c+0+zOxb2V/5p7obq/4RQReIXulAfEt6Zle9sZR4gX2kT5qgh5BQ5R6+qphc0gCej8vWl7heI3iW8Hf2Z7iLe2oIkMeCicFXbCp0+/Ui3nXqzxifdpErMolvMhEyrWKMOyHY2KORy/p8tQe8Owgtw4nPQv7qilYwYdamAa2wgW3g0U3eBdm1vzJWs++KMHeY58oiKEoeTTdyX5fvkXerv7rWeRpNgFEAgXg6Z+jnhCmSBb1f65iaQUWVZapy/Ytdr/Ce5g09VQzJ/hh4RIs+fkRIsspCqJ36Ju95TSDnKNDtJqiEYjzkSIXi/n4c7AdrjFl+NOhPtXjDbRW2ZlxvBS+bbF7/wqA6h1TLLyQqHNT/f+9uoTxTEI/ry3yqsSOKJiq+X/T/eUq3PqnKcqnVRMjnpTPtHSpDtMkn23fDK0AnROEexcOamKDbPRFPn6pQ6/U+QeF4sy0Orfeq18Bxxr6+ix+vKSVUXVUutfopN+V5VER83BuJIaq2cHVl08fQT/7qFoh6lQDCoxQgqfQKYPscxzBa+8oZtQmSMFFCocB6Rici1Ud4pa5GAHEJXPPyNWvU3yDgg+Sz8Z0ikwv3GpxPH6kI3rKNQzTkreKBjcJmvIgKSafrMqTb5/k+hCF1eE2VOPcVNU/j/B2vrEPiqnNw7i/ouLaYJnDIaywc23UZzhMdYhxc4ZE0WawsN4qXkvgSMyHOVqUywIYOUWO8sho0qswENhF6TUihVU1YVyeI3D/vkwMpzVgj5Id7dBm83As/srDYk4nuys62BV13q90T/8/+elhNPcmF2jv17+3lB2YO/o4vjthj3rSo979T/Hhu9djA5q+p72JcE2gxhxaIAYWYzjlWq042/9du7pXJ9NpfR4jPs7nvl2ppd3wN3q4w/PVzqt++4md1TogibMO7nSOIkYIZemgLuy0kO8pgmBWw9FGFN1avl3h4BJJk3raEkF8uHhuZ5JuIR8zLH/XGVpguAjfZswS3zOY8ZJ/REEjbLyGlRnsxRMmPXTFGeMxuvatRt2X6oJpJRjyz9mSgWQDq67FkCBV16ZC2EDh9DsWspxhjtDmf2kC0ELKU3b/hTqZr0pLdahTLgRg2FIWTQdgUaF7LBVky75r5rm8tt234w8VLjS1RC7QI+DTMiQzVOBSnST5LwhQO8CGZAEF0KVSVhhlCxm3EiBpo7o9xaTe8YkMMeKJ7mUu4Hvox87SW8FNgO6l87Kb97uDBYyaPTPs1a3yQSqhzg2ULQJYxwAa4TDVUgoBOb5LXal5prv17NG2BU56mJoLqiq16ou0n+1Q5vffO/tovS8q4TOhknjnQXqmx17eiy6tLv4+/UGDz9CU9EgxF1RgcijPrTAF0tH7tcgovivgHUZGykJkWrI1R2PyVO0nkSgKfdRKtL+m6/vsfkzKa1mGlCwzgkZNm1XOGf730O2XOIWe/GwvE9uJmY83ZVhyg/Hc6LNtpvbZyjcVdZS+DX+dV9sAOHCrirm4rze5wiEKL4TmeNOW5o4apsULZDuQXeVxXS+T3hY6+55LL2bohusTM/vh4oOFTuGkRsJYh+BVOD3/Vg8VMxn/VVYEHi/2b13bKNnV84qhR0gHsoVmVK6A26DMRgtc+TA9tyPw9SJgqCFS+j/UKxEUmoLvlDzuoRiXAAUUbNPekthAkIzBbxrnYlApzqfhGHMdczqSSIo+JEe8ncBG18FQ82JUrw8tD1CkqIzVZCA8q8VEIQpmXu2hPP5eOdtJmQbQDgSzdC5qqChVW9+1IZ8+mtGaWSla9shYsSluwbXbJSXUvvTnmQpVIA1CzCE5pg6odofnRUvj7YufTEkMldAxf50XSbfK+GZJR7pSb83B/qoH4rNIViO6VSbHdhmL+Vi8fK+4i77raQpeZlQ1o+8pDwpct8zPpH04YyX4FANMqY3HdbE6cghB9+5B74WJKgCYsgO2Mv4BlDBMYRk7SfaTHpmhS0OEUk0YVJWz4202S3kskXtMDlHTu9jz78WC7sI68fMg9Cf4T9QcT5nW9S5Iy4QdcC5qQzdTJM5wcYvjY0ZVUyZ7j5VTQBsqMrWaDwi9WqoQ9N2U3rlZkipMheOrwaNZfoWYLWJ8I8yIDK7zl5+Se3/rg9y85pUJ37Oa/N/4HH306tpq9O1e6Fz9mTCBmEgZRiqmMViluWtsoZJaQABmMxxCYN8Kwz9O9BCDn50N8uUP5fi4RAM5BBg0O8fg3xKW8j3YGhTWrBMHXwow95AzNRhv4li0SxLM5YhEtin7iTOpsMy+aOjgADudN8iW5jsBvdQZiB/XqUouO5uhuMxiIdoO9vDcyOkGmtBjFUB1mn+9CkQI5OeN5qCmq2sGAkpwpGjIlE/hHIjBvULlybmcOui4aI1ieGf86vSd4LLJbUiwC33SK9BLlaOxf5fTzDSHa0SiZWWhcFSAjImQl4XyZGdk1F+kkfB9Qo0tpFgi7FuxXEsvocoePZPG0QS5llKD9UM6dufRPU757lyISWeY2yxcIPv2kB7Yq0hNxzRwOI7AqUxa0Rzp3Y9IG60T6WBzj2IvewxaTxah+H6tVGK6R1b83cO34OfYwx8EENHAUomFOnsVg/hOi3ahSxQV8tyEvvKZn4+nLDjAkwQh0d8Lts2RPaNCP07O3AJUHzI3XNjq68ci3kvIpURT68f/Nsky8yCNHz3BfH5cj3I6ohHOgs0m8es+mZKiPkimLKvCCM6+GzG8qLS+5LK79z9awZfuKl/si8vF2PEomVZ0NqLCzaMoDMxi22AsgD6jNQgkIamnQChYh2hL0BD4Spg7RNPv7wPThPEJf+0MfSPIayoJER59Y4+EK1l5W0NC0lhcP8ZfR68ZTbIMbhYZgrP56whI3P/OSUTFdJ2f8Ebm4U6CXoX7+nQeongSN9Cgi2tU+DLUsXlCEQZgSR2ogKwqadzsEfnrYBCWIENgo1y1ss/txcQXhbL43+F91WHnMqkwRqIxmxPVKJZFebDnm7KXRUzf2WpSBrcUIh+ZYUq+nEsv/pngD56SNmzzj9F8Fsqjq2HsWRvaFzND2/i6qkpLES9G6QFQg9Ap+0uz/CrY/64ofzZ4XolLRFX6bzu+TPCOBhfXnR1Pc6AkYlRrriD8+Ovkc4jvKcGt9wJAkGsnp8XUp7TKoRE2f1bqBc2srj8wmzfjyc+JiOs+n6rzrNWzJFp3KmYB0VWNCOlsrwarszZOCZDvzchtq2jgN89KFTPpDdmmbYtcZ5EbBSCPLdTCbj4KZ5OnUMtmP8h/OlWKdYX9U2oogxBcfVim7elV7Kt020HliAWclk3tS3c4bT/Rl/3mXvLfCvpxUwJZUERD8kiVBzUir3XFMXmEvnOJ3NythEcsqgWvDrKwqPyj2kOZmj56kIpRYsBrGGivTCO8uFUkqVxavU84tStkZtK8ouc7feLCzsbR6HudruU3z0/cU2hLwpQIt+/GXPsZOTldZGlr1bZvYDBEkPr563RMvgOnsZ28lZgpI8/hpLXUmZx6YlFlFdPecl+lKGKXFyUKjxBo8lBfYmN7YpSLX/ewAmGDJ8G2Hby/13rqV0hfk9AVVjdtgQBjuGv1NBtB/BzhnkkJif++Jg/R21GL5+s0ypphDY2OExavP8g73W4c9558gu99ga96zavmh5a+qDriEcpi/peVNZKfnZOjLHUFBmXVcM0IHuLbnWxWlgRieHvtG4A86nkg/Kr+cueclE5cKRnNOdyhWgO1m0LrWmGNPWDkcyTtenw6gWIkiFwn29QnPZRfFyJLLvXYHjjATeRInneNTW1g6vY9rRCEPGiEQefYMgaUwa5SI7s3G6F9EV+XDQmylxPnrGm5zOxzm13Imd2FXYn7VYTdeIwqCJXCa2UtY7YjesUb8gEiSxygZTgZ2Dz0S8iLA9ceRQ1HTrtnWXCP55fWeCvsqvThr2k+JXwZtUuHVyG1VWVm8YICzfFpCtLcn1H7o8p+O3B//lxZpUlBUldMP4Tbz+vEypAT7XobmSToESg92ChbBcUciVT6yXU9FanXryMDlP2nsHdNFJp+3dddFPwhknx8BFwHx+LFnfkyqHW4NWRWTQ4fBHExh6XlUgFyyJgm1TulP4EYaPFCwblnaKsRzfetZ8oQvx8WtztA841Y8y3r2dP1RkTx5ZT0g+g8w1/Dq1qw0N4RFN9c3ZK/6ikVVptWzfSmLs0zW5w1LxpZOuY3uT9GAKvOsNIugyZlFmBMauh2v3fxmBYyHE2YOwcLYoBlPR52RPU1PAOJFckHnOruoVYEiZT5DdyA5gV84dyqeREiLtkvjTAvhZ1uzu0A0Sxv/v4KJRayDbgKIShZqSwrSimo/XGD8uGYVph1+Fx0mlB5snSl68dgGj5/WjKPUFnVWikk5cKqI73SAiRCuhYDcE8NIaZMGQbdQMoedIA/jN+E4ZD1WZPVg/IiadjINzNLU/r2+5sHmbpBuZqKuCg+USjYK9L2WH4adMRbeMA3CWSGdCdQhLuoF9X5D3eIg8dGiKVCXl347g3vwRAFa8atwAL/annFqFjLIde1FFc4WlQIpGk6nStP/Y92NxqjwJmeEqRbj7g4qE7WXnxIKpWLFvmwQQMW88SljmOb62aA9mk84Ge8LALUZuRvmwRPJ6x8MP0EMmsfl1Xo6ij46wJi2ZA+sRMFG3HgaS7yq3Y+B7ZdwfHbcbHn5bPfb3ldQp7uQOcgt4gOs/BJA9URozGqwhjAmi971dQHJJLeXkx+ZXLeZlLYldUYZJ/IYTvHLuuzavSSnSmuQl1Hj1kOAAKkOXuKgAcRoDKJEHRP7uQX/hLrdjlDkdMv/8rUD//zag74mEy5ZKZsw4s8W8OvMEn1ILB5D1ADm8ekkFz6P5YSmPZj/8yJvFBYwYXtQ7lpLVOkZfX0Re3bHWlTWfDw2Vm7NJ27KdmRYUpinqgHdg2naQ/72bC+3qFmPVlqgjeQtPZfExMKbTyTdo/qCUbMHfns+LxlSs96vw+2B5OPjDQCfUOiamXFIPp85rDSnsB/LHjcUDPW5WWADHwXMef7LVM8hz+2U6FZ6KVrMAUQS68PjkUDfoP0C1aGlbOk45G/7ahc0NbmsKSUezD7J955MuJwdu3pZiNqBRYEkrrpYAESDZLO14Ba81covJB/iPLrSf7XJC1+1iRbDKUxhvVkjakhbhERheOA/UVUietIqCICJ3uro6Z7Zw18fXFdzWqFwAEcH1YRCDQRnylduHG29FZngwIGL/u7IlVKvMUQK8/1i70EY8/mLe5D1nwAx2VXotgeT8y4h47RSXTB/z2gCCmnnetB3GeJQfennk9jFJtI33rxFJxKphpNMwdDDTdLhpcseI5KKXIOp/IVjBq8anz8/uNaSLc9XSkjoWgxkYlBsoFCC/Zdsp85nCvczyBg5mqnctT/AQoDYe8QFQUTgVPOzwlL2Xrvv1yOMuaDnxBXu+aa5QP9W/dpgyy/38+pjCiBhsKiojDWc3oKRj5kxnn227KAzDGI+XoEHmtkGMpYLoycA75C/NzXCDfwX7Tl75kntCWOiAsRpwNSAN12UpGx+NSBmgG/g0smODh0vAD69kOZh1EBXvsp5Mk5iSTvZJNKlFwsr3iA16TC/UfnwRbP8lDEnFBnELlVRWjWz1bRLXXy2MTf5Pc4fTomuvV/0Kqz7G5VbHDtDR8uKeYArRNacuztLBr8C2yYAG+VxWcvs7AJt9QXfLgnjNOhhkVS9h+H8ZPT+VhtnHrQLvgDCA3DbsF7lcMgOJ0+Fd5lwO9PdloSV+7p6a82pxk6f21lH88GDumTTcrgEVD8NbudbpHqoiujr9BW6SmxcYQgBCjqHoElwUQ35DQAqRV2DHmfEhO3qTwLrmbnaOOgZd/wvCEcxVb4PGmbJ1dsEAN5n/ztN+eTzrMpB4yDXHTldGgrkzbDBcgMgQ9bRsWYweVdyH6ox4dtO0h+lJJHNmDZHBsXIauJHGMcSFhEp3ANpYahgYk7c/dniX6IOzRqJsARi6IFf+5IVEkBdVJ8PUqPOljG1kZWSxe99/ZQ9mlYCitvfyRXXCjJc31xiSVxMfnA513J/4yyIjz4+VCYYa0Y8I97Xl/TxFY/3VCEo7/tjiGijqe3jFu8GwhQmRJJ96DVtGhI2y8Syq/kx3FFDz5+DQy/suYwDF/MPORAfmko6kI5qrjzeAL0ZsA3ZHtrp0H3T4XC5vMCwOb5yEUl7umAQLZKuO4w/VmXxNquI+Pv3zExwbTwI5AmiPVunhwy5WMZW8+FmKUp4iTm3j3ZgmY9uwI5WuwFw8R8kgLeegO9Jaw0B+5jSYbUgtkVrdAZGcynSPefuF0NpSEscgiW/TGXEPr0iJEnlSIGuDXVNJskQ/SUOWyOlosviIilhke8pdN5WaK7LZCxZvmmr2iuqga3C+hLy78duIVpmK201iUD4kmFW1lkZh1udq/x4TcmCx+1yWRP0okHybRTCa/fm3n6hltiJhjDjlx6yS1r/DBT1MO0leKKOkLjHNeHHKaa8iHMcaYGiPuMAHEDrA4FIBLDZQ/NJPknacpcNSGlxjTgzx5dXApuBbnSFQD+IESHyU8cnqzNWo4zyYUbXh/LFbxkcq/9cacxPNFvctm3o9/RaEVtM15NYQrSit1ZTcHPpWIMtuxgS4NMAE/JuOfnTwWf4aiJsvLsaxquAVzzKcrFBpzdmavOKRSM5+8Cs3n9d6sIj1vgJPm9ukVPTHR6SoRH96EtR4fpS2Cfeh0FlNkowkiNp4x4Vl6Ykgpg/SiUN+F+PqZxGpl8OHsd7MJTpRSSlrmV9fd/kHqX23EkVP2FMjiCEYDp8cnktFFfCNuACGyoAmr4+wOxlhxZxMFgOdCaJyE5hd553laVAnwcsnka64Z8TjllmCDRFpNC/IHue8os7hh21l46sRbm4POmw1+Va+Vc/LHKKPqA8Rxjno8bxrZGUfZoeyqkNNLw6S1w4XkHsDbYGzn4S1ttOz+tl67tMOI6xc/gcuQFr1fQ6mjzhWM9/E2z1oFgBXrZg/DCLGhCz4FoOmP2UYS/Uvnj0bcwU+ZxTm+PT2rOpQu+LddaTwWMUyVuQtake/wi9rtR24y0RmVKAMp8tow7fOdz6OtaKyta/x/i4xWJzlGsq1LZffmQIR4GEAYODpO6r07QxlG76ZepeBWv66/kbgGrMm23EF5RB2JeoQBeCrYvhQftiKD5LB9LSd5KunWT5UUZD3833ojdl6VaTbWUJr3XCwNMC4G6hV4ETGN3r9QuULW+ZHCwB150ICb8obu4zbFOcjZiOA9+XquJNMH17L7tMhxazTJ8Vy0ABLALpi9w5UQxw4yUq7eHU92OVq/Ez7+VD7CATVp6KdELa9MRccAz0Uf7IgAkGZRDJRRUqalIPCiOayQ4As0z9SI+wn8ESy4fSCIooCOWlDZa0fGQi1Pl4QVryPe6kOhws1GSa32zs7kLNC9YAYRqtnAgy/Y1hdwAaDZjQSqPhWBKkCfHEnwhnPNeqh+WdewYAKyf7jXI2RdTETSPEidGuGbv/ckzc3d91AuouL+sMZIpZFYENNmXtpxLxkCvrqYdcudp0HusB+uJ4yntoTUlNmJjFixwuVe4FUz2iWtWOhM4Hxft6Wvki0Q/qPkwlAdx7MbZxeS0gBa2pewYC8ZFvGGdGbvSWLXGLnZKO6FGYnO8Tt4SbpWbMs9qGwfMRqcUnjha1DiIQc05FNawjlPrhxjWUE6Hbta4I8QvflDhYzFhNtVBSjQ0PsHuI5YJ6zaJTkRpz541wFKNBH8S88UhcMiXP2TpAVRDMKlBBoH8RmGvI0bH3uQXsE4fVk1tTYc7hf8tBSfJYtXpuq3E62zHQRAgyLNxmIbgYRqRExYzZWBigIeKDRcP6zWMuMoQAIQjaXluvIlGB80eoI0MQCZA0g9ihWqLGKxrcslgSWm0nnAix+bey3gN6BXjpHw48VCY/gvKlL3n3xVM7UkQTdCOSmjkJCiMipy4GFdGDUqHW96MDewQ0YBeX8H8s/BEfSfgxXMfwsyMpgDXohkrkMUDJEStcYylf1htthfRNFeSiCWe6ccWnyx3vUABakylnceCN0zwszwLrNxW7KoaTYhaGS666E2TlyNixPwh4UJvcCNlSUTyq3WbRAdzH9HgMRGUvMbFwcOe9ggmdH1XBDEAp7MLkwtRotZPKTJ0DekHp4QuAogiHYan3fE0fa4dHlcpMUOd+doNjVLo8Jx+9/y9qgvpVfcbHChkANqmqOeR1hRu+vIxfYIewth/pLCWIfpKiCMIC1WvPo+Jnh487zeo/oC7ySj9YrBY5XpDxhil+MFihwquXXHIRir1DQcxdzY9/3uMnb5j1nVnUS+bhKxHI7QZlH8wLbwh31scvJT7ztUe8NW+jrMGgBiN3OH0y50ZxbT1nmHV4skyKKElpBWYrGEi3yeLTQNgIrACtpTLvdDGsuboNXCFusAAIE/reajxZmgVMYaS0AVq6k+c2WqWwGj6bVHT7WHVv9JEyRH8vGx4zQwdGSaw9uc8BH1Gz6/gbPfHka4Q9gxLPhR6HhaGsvMkiSEXlsdHFqIZi7F7j9Xisngn/5qPD4azHgYCwRo5C4pW934+SfOuJ1ESJl9mx/gHUevGmYCb9iRx0BMqvPIoBi6yGqsG8wJU+pEEFvO1GTBK7VDqSWvKbh+PhfdaimX7uwvTWZ3iEA8mEFx/U6qsKOeq2OXchJ2cIBTZ4lTbJI29nnrV2ubLj/lMgWPT/0ZsvJxWP9xNHW5iPFwtScffqAAD3vUlt5rSDns4yNzX8NNudZur0atVK9usqlS9us8vxxyRgj0Hc+yiAZoOF61fQdmKsmMIREkt9CqsTzhtTLbnzx922gYI+K7kczvC59mS7ZTPBnOwsjvE0sv+tj186g3PBr9qlTiz0a/cRV6K8k6E9bqAeYCUH02vdhNNMDjM0AgW27J+4/zXJWlOm8I0p5SbwdO6St2Qr5tcu2fDJuGlDbn+lRujnplnfx6Lfc/HNjT0WFQgpw0+2HIc4dkSxNzHxwRd3fZol1NCJycAcYpiQgQKR8MdRlL9Zg0jk42TzNJeIBF5NnjBWcCr7jVDIK5WSCpQVotQfXjg/8BqER5u/gz91mhy5QuUgffE2qsZv12zdu+UpVGTUUOXhH1ACWk3p04QUntMQUEDd0lGSxaWU/jpNZz+4xFIeB/DMIa9iR8ETYi4FPaUHqlM/oqOXh4Y8B4rlEFg/Wvc1IPCoPRczwlXbah/8hhaPkSlL3Q6hzi+jXLem//q0kGPPVCoD47TnxcmxwqDSR6pV01E03CCnmWsMHpN3H7gNFrBjwMBrM5n2OMk+8+BDuwopMMiFE1+YO4aBiNXAUNvcyaPwzcFzOW4Y2M1yRgr28QI57Zt5diHrraNqMWduk/4lkumr1ek0EtLkWVhNM7HkQMJiBxRIGioPDkSiWlhAnkNXFhPGMeuUyZOFNRw2HwujJuYRAkz6kUk53Qz0h5Z0SEExgM3sX00nnAia9O82WeJ0kGsO4YnxrB/hrkwPjNYQah0R4IvIZdlE3QwXeirMKGGHUhkrwrP2T9T8fg9vSFoOBSW6yJP7MPlR+MUcjmWQTkXTvhDH50MkVjQO9epGysYfFdosrJXDvFsQ3DFOhgsliLvjOTGraMU8yXpm74RYBxfBKDNdvXeNS1KXzf677mNiiREG6ybYDftTWXHAQPE6G4Dg6wf+Al3Ade1RwlrLF+0g52Rt1dcwylSB+N1fW7aklIzv0rveUDaDC89NdJUwp5g+znyQF2FVQ6daquPw3pj/eDvj2xhSOsTdtTbAN2yk/bS1bXTL4rrjmdCVKMp+ZRJGaaEn6sjeFZKdqVf22T81dRG8m+Hzw0uY5iNbEipwfCYi8Fbdsah1bYn7YGtvRn+yYXS7bdHGG6WDEQDwLZLkgW4JxRKgyiv6Wk+PsZlXpf8Ry2aAs88iHOp8agJD7hwBRojAAjsi1GdBmAvw6HfmNBCqYfupfyemEuTvRd9atSi273AUeS6IpMY9DohoFZBMf4jbBz8XsjWtVqrzezvveLWkIC6lXzLkwRcj7TsnB3WwyNWHWdP4jHUCsnjs9AFNFEUAcg7alPlXzyuTei40MUKzYM+XHjVs0QHw6CYS04iOtt3a6aZqIrmFBfLWpV9xpm3CwwkpNzaMell9P4aYMqFG+kqkgWQSbzOkz518h8/d0GILuljQCxbbMJLWhek9DVOf4W1gYI9dHucM/N+eC6bbt12SNsPBxe4UKcVHLBQ3T7dxVnhcfOxQ9HQNd6oN8bbDC009JNcePGD1/diXi+iHDKRalLtUdcy3ArHlwXBBQgo4UlzY0TUvO6h++1e31FH/dTrMrAjeMC1DIK7pfoFcQCNnjPd+tAt1aTMYHn4tS2Sw5/XiINQ5Ip+s4lwOrKUlk5wlSZYI7nZFEh9DZpO3Xj3ZNmO1+6w03bmnHGu7ylGx7Mndg51cXequLDBEo/FGfHaFYD6QvcfRq4DTYTRiwymyYHwAeJNB2xZgtyn0VY+6Fq8tpl6M4PCOibg9DsEHE5J7bURNjiE2RLaFSiCHIrEsVq7EiiTRCTPAEziiIPqfqprMBa6NgY6mTCFhAU4QCgyxfD8+6gCn9coyFl0NyG+8wT5RGharLB5aPVoY2Sk1n/Mc6bSC0QFV+tvIOauZLGciBCxLmqCFuOjJ0hNp6oFn3YQh5oYzS3XWxAy+HNvngm04arl4fh/KLuOx3ixIBk/9htVYN1tNwgkhVyygbGiF6u1AHFkzPXBFpuoe78/bEFVc74cFWSrn/O93Bb++GIu4QL+4qCncu3RmrUVGq290uO3SCYEp+IINgdnfPEIat0cMBGYUrFNO1mAl7eo8NT2w7EZJEh2jD3eF8Jcce5XNJ5vCSjMkXXqIWjQfPXeIebhsG68tJpN53O8aE7KdrBhv49mk+YRPOhkhnEr6doAC0Yus2Pp8GE8vzyoIAwe7mPs/SFXpSYMq6IqnVvriB5dKy0BboT3C9K5PF6ALPxMuHZgA7MAJG9kXyO6DX6JQiwkWvbRbltmFYtf7tG4kACpjVgnn1s5HuGjvW4IifBTDLk2oFyzKXlhOtpORimwSsrTX10BhEnkQL/4dEqPOpV8ZT86dRs0phKrGt43IbHV+oEu99x+xLLWpWyWWGIv6ok/CN+E9KutDmxjd+7ot9PM7LZ50K6y0JAm5IYBzKSBD3Kot30GcDs2qrgpVDshRZKUnT2W0UcPpJuyHV3ShvdFu7I58nRGbdCmIT69uVplviOgg+oR+u+VfpL6i+g9GdfzbB8N48VP7kIXpAQxoD58UmN+k1NtA3HKK2AGu/Per0jYrhvGfkDrlQ3+vvtyyzGDhpD3YMoJEZYZMDdCiISjT8i8LF3YllggiTJLWkF6illgiet9bXTN/g+BD/4m7Eya92QP0iqNjHuAmOzgfIkv7mrPDA49Cc7C2jC9G0nWIXYtFNUD8CTxXNJ5wIsWjvfHS1zTlWraGvTUz/CeECC1Faein+BX3NDjq1FNAm3CSox/xLBhCFczswKs2N6qyauvHN6A1MvvlN0mRA72r4FwQm4yUN4zylvk3eg0n+66Qh84SvgoALKVL4NFV79L0OkPJyrgdEjXhNKIAzW6Cy5KKI/gdAZDFQgHynEEx9SOVM5dqWJOWCo/AR7+S1tahjfVO1X0ObmIlGzSRqH3gQbVGFJvY8tJEknfJNOCb3uWgqlaOZ7369DcV3natRvmNABaE9KZ5x5TaQ+3x1zsaEEinC+aS4Z7d2BVLZ3pgAOUe/h5m9H6eKpxo0Kgcyl1zGl+9ld8tARFNQbsb02A57YPkfndRVzhpGWuAx5nlOPUQVFpoxFpgTq5Z9j0Fe9cY7/uxxeAKXluUn2IrWQzuOooXY1F/sMenTmZ4xCRVz0TZLhtdkklEHm0OFQCblQo3pfsL7WF/sxZ2Dv1lyYhCTrMw9KyMOEgKps42k+vWP+V6Qw6QIqcvvuyEOBlgDBGkot5xXm0YXlLXn38fP0Rbq1wpIJ1H9nd+qeZDmvdeoWGElJuaYH4xMycHNDRPQvLudDIuQaDDWCrHj8gRq5HVxln2FbttbzrtVskF/5GsvnXeN3F34CUXdE6hfpf2BsVEbQj4fQhRHntU0WegwuHBrBB7oIgmDkXHZacKjPpYrJpI3SkZYKaLPbJbTngKaLQmv8YgpTiIuc6MSRWgiwox6RYHrR1YCO5kTF7gTDTvdIyw4Ad2QiEw3X9Slp/VySOmMz/wcdvxP9fcuN8/ZpVQMywZWISHSQFMyAn1NXwk6hM3DGyYV9IV4Cn0VquzQgnf2YuE9N3ijnVvu8f3E/Se3DIGThXygaOsWXdOJjzY2iJr2S+BgfP7iSwVbXAK2eIFTDGvrhdJbzn+VxMUWRQfs/bncEcZ3seeWO2B+07Mf8tAbqK1WLMywiPbaBcI/WmjuU+ZEDPAc5vn4SWk0FhecatYIVMsLyGU01K9siY7+690ly2UaG+bH0gnHLF7wTsw9GL2M0cuXpsVWfFsi02b3a8MlBJojzwKwBxpHXTnKan4O1SRpnRLTa+FYaz/m1NUxBsowAVds7wUsdj5lbPeqMBTQs/5H3xx1i9VpzhlayYAQ5pRyQPsMgEnadoUrfFeUUa8BuAiJvm8TPHYJK3Zof9kCKKMRNLYr6YuCAvXpJEF0WhoLqnbi2YTEdlJzfzbuFWojtlXTZzq1br/UedaCjqxGrib/AT1kw8sYyRLEkVplE47oNuGm5pGaBXl9lehVXvJOH03RdLFFDGoqi4fT93S3E3xy2ZguP8XDE1XbZFPOPXgle+5zVj1H+nLNR/IeOBmhT1/i1VHC+ysyAKWeoC8Kn7YD+i+3FHvY1S5mi23XJGbHLwtZoDphufmJtUT7s1sZ58OC/1jZ7tGgBnFhmlVla/gp53AU0+l1Js9rUIOz5iG6/v8D7Fv3wgsxgbXFTnvt/kRUICOCyPj6ZLSP+dMOdj5q2kWxM2rrX+UDC/EG+Yiuw71t2EKaQ67ej6tCVDh7wemeHaBooi4szK528Oio3TZN8mdCZPi9HJ3ZBE6axAD3p8ypAm1Bk3+iaDPwm9+dvbeImgAwLIqvkvn7dJDzBv8jYWWfuYxpdB9F31q1KKRF/9+Ymwn8Kgxa6Z8/GeowYd9FEM7fPFWvrRFshxRIZK1T2r7WTzxXD64igla4/qt2G81PWPFGxHVagVWBEv88QWZl6iHxztlq2dheOYzwKSBOtMTG57ugYAikMO6ULZ9JWkQAr3UNvlQL0zZuuNMA7fWkplVDY5JaASP+ayUYvEkdWy8hPIIIVuhdAskl5123Zr1fFEUubCWGzEzmy8mYo4jCblbVB46Xm7NWDeASTOdB/nc5zZWI5oX1filBQxgvo2ABqhm0BrLgq+dpO1AHreJL2Y5/Cpr37CPx8s2qyaTOsdpVZmc0J6jMc0xaPDt8PYw18X4ZV/Nom6XryoxRQM7apoahiRBrjKjyTJ7vfVNW83PHiV80ctPTxzfIt1EQJkbOWo9q6ADH7jU8+iknm27KuBwE2qt/hCQAhW7mDPBED9G7/ZcjSBmSjpwVlsxpUOXxc1cAMZC75DW3svoIRf05+H1woMU66tvpoHBYHxtzYRvm2twdiB3zSojzSfgaWAx8WcTgI+ME+XMZTpGCDtHC6Z65aPRypTbPJPe+ZD2SkaeYIMJd4JrzxMGYWsNwvasUGKmQX8SgkIXY0fE/Z2FmviCG6IiSanmOaqNcO4JZyzTKAqxFmH82YxQO5G8+sgSBInnHEDHSU7hHQ0rLk88xxZ9S1xOgiM3Wsg6Er1DkddZUFbRmnoHLIra7ZUxg7waL27S8sExwV62GwEUZMs2sxsyo8RBFJzMt7D8gNDEJVw6UHvks5DMWzAPOq/NLP/FDP0PTXeLoSbgJNyr1O6aFI1+ebnc9chXhW1CPY0AMznw2ewMa3+dU9KGN0hBmqWqiHD+L1E+FTnL5jRbm7Ei5n20wSy4oxgwDor9hqIaz/3T9XqnJQW/h+fYKZqoLlhv8rW9GLoprUKHOMrTUTy1H3OeBjuYT9ZxKJM9J2X3Zk+6U/RukAQ1C6UvBuateMkgsfixVmA+vx9sUkjwv/B/dy14VTopB1YSfF9/ijX7+j3bPW6qo+OmdUc+k/ZLnq8L7sALihBTocO29Iug3ptHFh+q77caHbli/u3A/6ljjxeJAAJBi6dszGSEpjdClysaQj70Z0LjRzTD4g1ZvMvemBiAjGReiiJoSfD52Azda5ZF45I4gdFJHK3YRqK8L5n9mvfjcSIeRmypJrjZOlf2g7UyLCbtFD1M3HySjJMxSiHeaDvGpArmee0Uu74AcOxmSotKoYH0wuQW9ra0jMUalnQ/eIJ+8uD5+ROiWnr5R1HhcBc3u5nxJ+R1Gz3naQH5azN1LIPgQNi06+h+herchR6UjMyFqjKsbej6BHxLinzAYC0Pg1hLlkgI2iSf1w6e5Wbw9v3Bidslkx7HPIzTb/BUR7XYe15tQOT8FFpfOLzUrdv0fiFMGIGUwPcATvGDURQ+iA53vC9qHhxJuSD0/UcmwIDNhbm1f3bm1Ir1SEmcOP/iTUcrGpJQNhFEYRo0NEttEkmvJJKOkud5L8qIXSRQSsz8Z8wzUZzqNrQSzw3hFUtT/n+foJHXvYaf/gxhjn2IzS0+lsdVkhB5C8lrekrLMFr1Ge1kEE9sgkvJJw6k6tOOPsVTa9cs9Fua4MkgTiiItGLksj/9/I/Md9H5Xng7Gh89jjLFZyJyJdt4sjmW9k4zRRAgp4JVDn1whcbXH2fdEaAXq0ET3bdblAhNrSzLaVIds5XwSK/KqWehF2BDtzGZaLvzhQYjtkM0jtqS8C29DrhrcZZqC5yicOo4ElsXl2kSyj3SPgJzCwrGgSIIWmXKtl3MJ8T+fUj0/KR4aJfGamO2QHUNYeU/G+cJfMzc1JBZ+Mpa+zxEZabzLD2gYJt95ZG4ui6vLooohzp08sJ75Pa2QShgrZab4qPIn4lmJSBXlk0J+o7yhXIOURAN8Nkm0VEXJTmnWcZisH0c48BYhxGtBtVSLGwmUo1um6zQy07k0ghEuJzUMmqK3ZjDLgtVwolSWdSty2khrS81sr3GgMw7U1IgjwLKjDKsiawzZZeHTYoQEl+QvKlMlxwdqb0XbqSjfgw4gEsSAhefcQWaCassdKIjB3wMrb39cNgI2enSqQnCzVbSfLAXaEt0BYu2cj23xRdazLNKxzgOrZnn43NY1fD3rBKoqPS/F8a7dYetn8AomVSL6S+vOE1V4WtjJIUIPm2GZlam1/Bfigr9Kt1rVRNGmU8+JXIjfl5fJ0lFTwbEckdrJ9GW2mxcFRXWWIseJVOMr91OZmuiWqZR/xZYcdqiqN94QQYQ4bThmsxujZWTmdYK05DQUUsB/gz/dT7aXrvPFdjBzT05omrliVGewCMCU88GLC5uXvxgOglifqdcCBwHTbwAhQ/WH331DdOy9wHA5xS6CFOMG7oQiV03KCxX8nTkKIk7ULDCxaizE8zNGndNa2ktdR2CQMKNCGzpUmPn0iwUOC14CXcrFglV+so6mIhBMrnG8g04F3ew5sBX/qi9fQdx3l6ceMv077t+slbhn9WQeFfrQpkVaTWeVKZ2cb2i6wdwyrqUIpoMYhRFPZQPX5QNL3+psKMenzkL1QZLXsHhT+ALLsioDr+mE+2lnCrPO4xkRKlrwPJc9hP350QQQA0j2rLtAw476qukAlyfStds5dzVVKGwKlPjQHC7Pp2I+hIaoZrylwQ0W4UNeMHMCefzAd5r0FmT++kpHaXR9pOGPcBLeFGWoW0YkDi7vCwhHTfSrVdrIEZsxffwXmR+2LBB+er2K9H9TKuBiw4ZvETXLrgVqzSzLFD2LTHXJtzMoc8DNkqxj39CzhCurOBVQJV45ZeAhSEMv4zLMvx9+BXLGykmDc3i09L6vJpi1CHMWCfVe8ert5C2CYTI+8UJD7nDxrJMsHfNEynyFHOYV6W3QGpRGA2/h1jKWNxxRSy5G8z8rPBKoPQ3p/Pqo/JiipMOOriZZs3CBBn1vs8/yA3otQO8i0bfcdkaZMXg5EI7U3NFTpknhGqLCMNzSHJjG4RsPil8ktRyZC3CnuzsnnqTvvLmE8+IdHi8DmLxpH1HNiVZs9ZKuI44oE+wk38WPp8HBpKxeu3uAgkL5QACD4XlfTNnW8U49qPziws/PyrErWrtaWTYDqtobhnWEZHNrPq7jWVDd+ZEloYIeLKSJ7Y2qMbT74YaXzEFEWyPU169hQ3vDz2rKDeXIVKpcDndZweBkcFZYwlT43lkIwSr+5jM99k35/q0h14uTK/XSc7U0+DJnIZHnF4a54EtlEbZ1JZuMUpK7j6/ybUgvLaXpyZtziXPoCXy9qdCOGnaQH83681ay9H7oXtnAxQpmm9CjHFQGKZV1bJVwSsjNK3tbFfaEed/owqy/xauVnb8f1GwlQg5KPYeEcwUIIKQzi7zoWqQBYw9Gd+yxq6xL6/ed5WxNNI/r59fuLlrUrp5cYjvcm6yiUNPA9DiSDtW50f2x7Kkc3tyoFVflSsHoTAvyBkN0yMpTHQ9wLKlb+fqsNmQ/s7WzKFSsYVyBuiqxu4mZjRJxxardvpC5xMrxJR/aSWP1ht5I7+Fld7rDJP+yooZnSDVFZ7RGBr1B6/fWyXCFMeDTv1lJPYrGjwnxYif0Upys83V8MtU08K23vxD9Abq39l0V9qK4zEtaeZ22HdpPOBEz63olSlaW3j2C7ZFiDFcvB0MJ2he4dRgwSK/IGkBC6JCOiQNv6CxV7p4t/aBmhxOKRdH11XmLD1Fj065X+KCMCvT2m9tojKQUoDtxPK1QMFTkH/nMIf9vQV1Xp+ee+QFa975PbKNVCQZqHsOWwNhETp+R6AX3mfI8GFOjXaJYnt04J8el1kzZ4KRSGW3wMVjbEnTnbRI8UXJWbESHz7MU9UTamjdQYFiATjRnE6RAx+43gYvq0bBEdACKO/IQYEUIxB4a/bFsaDKsWFlxy8zVmiByIvPli3vx1h5Y3m5OkXSC0AzA7Qr7ObscNr5eR/F2NqqbfFTMhnw//4o6Ee4yK5r+3kgj5EBliy7CODcn4glaDeuleq5FvzaCsyIt6f39ys5o/iGP12tzvqNyngV6v6FonnEYNY4jvmuBY7vhFxm9+fOoxLbYmIKgctb1ixSpGeWECgn6QzHp/tZO1Qp1lpcGp6p709+St/4hHBEzVzmYv02nDyisgtHHK0J1o5SdbMGVjCrtREQH64JewAKMmQJkYIdyt9kvzP5nSayxRTKaYwT0wJVbVPmkDt8Cv91WKkcigpNb+lHISQIOcpqVNsJFcHCpmtqeRtuSwnRWWeJQGvqdxvKbPc9juUnAxq4PfxkVF2t7oUOfPdbxNLwTayul59z+jMM1nb/8cc8VNRFMS9WcoN0ZPcg/LdP/P5qZhmhujyG5W+bh+DCicZze4WZYxOYwjcplsmDQf8jUsiXtxXM4D6h64XwS+cupE24HidXZqSGkfmLZ4YCqhG2HOwuDNiiK7dFQJqg1RbfVXwuGQUlp1KvnA0SAHAfK2cRKy6d0iSbhY57TPnvsPSXf6V+yIhkdmKw3uLD9PCYi5x9KzCfY6uxiH4+R9Vm2kQT23c7jwRId6MVi/ECANO2Sm1afORBfRoCHN4qA7xMXDAOBnMA9stJuABky6sar292h/1mnEDQSgl9PciF0g2m1hLjlouj44o1gqfXIgWFSFNGqmEGuWUy07XSn9XCPps8eqofkaMK1kDDYpHw60qLjSNe62x5irsMdIxCn3zPtaO01QQobMLvlP0YbtypUsogINMns5ZnCxlBh/IxseG4dsvvxXQh97bMQCjcWb6smYSqVZ1xlRu8syiU8kBluW7PSGn2FaBlieZQjW2qWQzmyODNiu+q/WofcFNNMKeQQ4qdjHELbG1WRz+Ft6LY5OtAplvZASn65NLLhvE9fV+3bq2bMibPLA8KCEzVRW3AEiL7uOQAxinJxJlMnpuXAPKJuNLzLd+TUllbmI60pdBMhDrZ08p1EOREL6B44XGJf7nAQnu7g4mXYJZIexqexbb7p1iDHX3Caq5TxY9EE0skaySas0GM6aIFxXmjJZWRLonyYJ5kL/sW3T/+FrGkZNbqqc8TjzKx7HBxEBA3Lbkg3UWhVYcDCx+XQDi0YZg0jNPtuzmzn4RIjojWJnJgPTbi54sgYe2kFooZWqJiRjkIS3QTOpRxP2SJmjld2jAIzVrwcfVspnPTWyPd4l28EnJMMEm4TnyX7lGjnMz6m7nw7dcfEBWdbW2+zbPySrZsjcjYpdWhQqEGE9xIcV4X+aAERSPKkmMgeWLTE6TdCSK7exSyT74IBLr5N7+rYZwwG8of45U3rt9Gbxi2GQruegJYqcJBVrYR/6HZCeFE4rg8Za6vlT3VZYUOVeQM8+v0ARrUHDX854/lVF53jtNw+4ojer0A302zcMMKJniKqbyG+IWvgPF9qK4OS+x8NwvlmNgsnPVTDq02R4ud+Nl10HpW4Z6vC1Ozg/18syRnIbKcsEAK97IivuhvYqpagsS1WcbAUsknt5RTvwl9J4E+FvRcb8lvl327b2ridtIUkHtLuqUjhCb3zWSkcFoVYUIeqNfW/bC5g/v6sM4hxfF8CfdXd5EOOXY/KN29wr51erWRFC52DCCslwWyyQHnPH+pqr5JcswqswJOcFZUTPZc2Qr3uBw0BQLOZ0O8Y3ncn25VL12he/cw+tI06so4a/kwGw9zHvAsFieC/pFRwF8pV8S/QbAH7PCOMBQDoDKMCBuucBwZmukUgbFmVVUrmhrYVBf+1DHghOdEDzq2q+GOFs9drhap4LRpczLlfFbswQn34Jv0CVNXG+peCSDgImym6s7d2fzYSt0Gncqh5AGIblPrw9iXTPks8BR3iD/94dMUeNAJ+Kpl0T6K0qGPYZexhfkXa5Bwq5moQ+Ivve16h5pKO0B4d1rEm8BAqNCPCjEK9ChmmAgZbiKtSS1/Gefgue3PGsAtFOvD4gmzz+vf8HOm75129eIQsR7FC2xJlLmuRP7V5wVeWXDHJ6dLNMU+KjrJUYolhbt+Sqh7m4T8RjXXruOG7zrGuDMmUVVHRkBEJk6ge6+m1QiACcSWZOB8FuG/PrOFw+x0sIuAohUneAw4PQVG2LV6pgciUfA1rbjYMqljvNvfju+cv6JeFkTR9PLYwxuCf2Eqzh3cl2rytkxuf7TgifkKWgGf23FtiMPkb5Ea7XDAqWuYsRbVVz2oIOyAJDb7XdB9OoO3mZqB2xjz20SYLpfXXaWBxSeCdRthlf1aryEgy+Cahpa+smmza4gBUClFsJOMZgZxDs0mPHvjbvuKXiAmsnRyV403Sg2nb0zk90ngY7myfjrt87WSW4FhfAXgGRChtITLZv3RaxoMJsYhN3C5wz+Ub6xd99HlM5UJc/kllCf9ZH2C/CKrP9ZpmwPOKleJa0jDxw036vic4L2LdB+mWmo99IQ5fg8IpUdx4lAK3RKm3YidQ3uuvXmFnw6LFMYSWyv//lXxVoIEookIQ/NAxUOv8PuxlOY67OfFj4At+Dt2jLCIVDrdI5mWLdjWNJPGXM4aO/l0J7JqIJfuqISAq2ZFl0qD4Lm6YTwRRmtlMoQzSZYXgV1XWXMHlGuTbHbOmL3C8JhHVwGXkVcjXeb1SrD10moCyG1DT+i1YPPKLmZ7jhVtQckUmPRFYjt5W3b30dKT8sJnuN+fqNcLDqYaby6BQiS7lItimHki7/2t50/JS8eJMofQpY4fXAqTJIHU8Ui6Rz8sV+i89yyVEKHJoUT/O3JfFIsottxB06jQfWv7A6uXFgn8Zg+3N1quEC9APnJvwzZ46BacyLSecCPtTjU2reQVqy8CDUNYtGUsRS/BNIAMOj5F9sCNn8BbWcp+TGrVsrfPtQqI+9qXJbVHjZwMWGkjETMnywoAr6PpP0CYFgEkZAUxdMudrWat1xH8/iFXVSy3f2v385RNPp/21+VTOXSeDLoVNiWFmWudWa+UgfX2Ul3qZVru5lWPeygo2PRNPFGaS6K4KlRUo9Wg7c1ziopJMGuek3NJDenPzoqzhFy/Ti/jTxtk0Ak8gvlOEA/R+BeFcGpjX2MFu1wf4tcQ/DYoCo02tmIk3jvf+/5zJurMPxu1hTwuo23tL1izTiNiTjocsoFUeiN5d55+1yWWM6Qj2DDNhu4ROLBXHzbVIztse6JGx757GbIuIoDO9qZyjhMeOJ6JZl1n8fbyy5Vvi1kz5YIhzMd5T/V4qKrtxYWmyUDc2xm6JVBc9AKniSZ/FG/XiNK3cZ3w8eve2TbY0BVF+BRXGMIPQafHGiDltWNwAqdfiLnN+U4ZMlVsIKmM27TUwUOM8AlVaETUQNrTayFiaGJovFLXW51D+89FvGm09RzdR34r1y1xORQ7hO1AutQD57R17vUheUaUo3Yo/0kRnLnf/jiWFBgfMQ9gOrRfjYs07XE4diz4WtmoorlzczKnA1taTRW6vvLSdndwJMH9pa/3lawDah7+fbssb4/A7OxYe1BBurfDN3Zb734lPuc/+MGAts3CoPMPZfdT0gI3FDvPh4rPoZWLc7jjWXbARP30A1NpPM/a91DPA//2SGmzCm+HfYO881lACCkIQSvwvmTqwFl/zyjgq2XE0xaDGFGNuAfLs0ceuPrbjR2eD8ULws22W83AB8eKtos1vl6OK3OYxJEP8vK8cVgLoizqGTneCLn5gZogWC/JPBh22UsmEgH7fEexzdZ77RVV9dJhlCb8O0CjGd+3yqp8aJKEPo3mm9hzgrSu4Hb8oQBgXUSpdr9cKuc30eKccwHF0iZcS4XotSA9njxx+TpVcOT7hKOGnl1TCon78cIc4wXLEgdEaDJhQ6/mmHaCG1KnISAIQGNILL1MS3aBgOvJcv9XIHJLNn5bqheBKkRc8meO59M7Jpz/eNPsTlrV/tW4wZsVwsGJr+0BG7q8lnxjeq2Ga9z1RfnzYnF7mKhF/0211LyGZMAd4zMxN0gTfAO7oOREm2nRJTvoqnsJF/dru7XdioAAUUH/6kPG1454q6dfOFdY1Lqm16Gvup5vR70hGLI4tiVhrH5WxrxWY3zcnAQwn1knR5/D78IWc10Vh1FkFvGp0q9hXfKUE/8wbIeB6NahqChhNQhIj9iMnxZ7JPUVNveHqUAdqOfqHQzQ1pTRC4JigW+R9cLwllAt2kOrG4rJJGkkdYSupo13M9KNaVmoBT1yv6y11e1sWDuwsw0mW+fH4y37ypcaiS850ZAupFbqmtBzvBBVzSIx3YLV8VxOJofF1fNBv5uo1m0lbW/29G+6zF2c9/aNoQv6HnWjMLGRKEuhpFKAYVaE3lI7Z5T7o5RtShAibEZWYhfpMdUGb+xi6NF4EnX0BxmQeDvhOT4yWQI2WSQY1T27rKUsFLf0bIIPmlNrKjsCRLkVzDIeziG/d8I4KAwJHb1VVjxFNnVi2Z7w709ieXCrw4MuBAf6VpBkdZG2hXuPAb3BMJu9+GBnF16L9CuHGeJWdGDWkpQH4c+FeS8G62dmO3vcBWbmNHRnnhvrATSxDx2Il4cN/QfP8mzq9f2mlvG4Y6P4X/Kx2lEPLKjRTcoz5zFNqh9RsjxwO6HstgPaZR+4HtGTDy7iYM8G7mS3ByD0b+LyvBOY2P1TP8W5Ol1NvRikYNJofwnIXYO43XeC8ZJx/P0puuE0Y+qtP7t5k7MoSW4+6UuKjWa0GLJfABZ8kJSvzF/NV3CqFXC4EhTGkUQHodxlAUALtHu5J4pmywDVyTScB9VCRNwI1OX1vzrZCSb7RcJ2zTnwBIj1Cp+nfV2DT6U3r5C6zchGl+xw33sA2ryuy6k405GXAZd+iYgl45RI+wxEHaC9UIMn2M/iKNRXA0eRrX9lTD2c6K1dTjortVVJido+OyXfSeTeXSPdWoHzIwN5vBSkyF46jOfqCc9HlrgC/bz8iwoYhX+D5Im+U2JeePyXt2aVs6oC6ElhxzVYsBm2eKcgqWTUMm+1MdYjLSBO+5i0+tqnJu/dfTxN1+IfhNfUAobh/gakwSbIeYxooZv44KBG3sOOIm2b4tEu3RpM7rkrOtd6hBcyigKEBRDBV75u2SovZikI75c/rtFzbr+Yfce8AGNS6/z4tyg2Jm+dx7zIcQ8fwR6z3O50FQeFkw1fxrasehzcvTOFdm3z78Thraz3ZQfXrqhqFJlD70qGDbHmO+560Zg5QQiKcKz4Ro7XcBuhNh/6YdeFqB8RfgDqAS1Y0OdXNh2kK+nkRj0yJRiQDbwNe7MEa6UNmFLCsr/VIKj499fZYJThsoPN2s2nlH5MM8ooVOUsY35eMKDq2MOJaNwQirYGS4aZkJkozKV51ZXvhQgaq4nHW8Gxk+rCMHkCxSHT07PFWWNG0VT0W4PXSBzGkrjRzTp5eGE6EqILrb5Ptwyk+YX1cr5tVfDly8O6meKW9m6ymCMTV966fKfKuKVU2ZqYgXsR8Zrq13ETUYA8uyHkNkNGGv5S47vXkr1RuNoEWdm2i6h6SMd9AKDQ7kv02sjSccHR9qcLcHSfWrtuooZftEJlm6YJ7CoFaIc53DMDP3AIVBISYQkqpTwTPqELvJ8VwkY67UVlnGO3xQoclqd/FoidxJj7ojn5qlmuiMZaB8+ZPfpkEal4VPmtq6w8i8kXIGI1SQxIvtkppvTgP5XFZm847qVz04f8oKRsAKrihW9wBmaJ2go0voH9xXdPFhMfuFRjWNswBpHcP7oD+KANuV18lyxp/j6WjyEhQ8CpcsN/zo8r3avxC2smB+cnzBH5lJ5bBQMlr1sdVQHI6DSJXhVXMNtN7XTeztK7fOT82EJRZyDQ6Swbzv+/13wy4CmcFsMOZfedc2llOv4UhbJkSZQN+MjxO9wMnjfO0Wm+z8FH/92X8uHz9LFH4l/Swu2o7ju1nHUxMFw+9TKAmUwQAAAA==;" parent="1" vertex="1">
          <mxGeometry x="510" y="480" width="1280" height="670" as="geometry" />
        </mxCell>
        <mxCell id="aqQndB_alxP7V_ghkqSS-2" value="&lt;font style=&quot;font-size: 60px;&quot;&gt;ox-zenn&lt;/font&gt;" style="text;html=1;align=center;verticalAlign=middle;whiteSpace=wrap;rounded=0;fontFamily=Helvetica;" parent="1" vertex="1">
          <mxGeometry x="650" y="630" width="390" height="140" as="geometry" />
        </mxCell>
      </root>
    </mxGraphModel>
  </diagram>
</mxfile>
